<svg width="28" height="28" viewBox="0 0 28 28" fill="none" xmlns="http://www.w3.org/2000/svg">
<path d="M8.34082 13.5925C8.59571 13.5926 8.80176 13.7994 8.80176 14.0544V14.527C8.80161 14.7818 8.59563 14.9878 8.34082 14.988C8.08588 14.988 7.87905 14.7819 7.87891 14.527V14.0544C7.87891 13.7994 8.08579 13.5925 8.34082 13.5925Z" fill="white" stroke="white" stroke-width="0.292086"/>
<path d="M18.2275 8.65958L18.416 8.66934C19.3468 8.76467 20.0731 9.55038 20.0742 10.5053V17.7367L20.0645 17.9262C19.9689 18.8567 19.1833 19.5822 18.2275 19.5824H17.7637L17.6328 19.5961C17.3379 19.6572 17.116 19.9187 17.1152 20.2318V25.2475H17.1162V25.394C17.1139 26.3494 16.3879 27.1344 15.458 27.2299L15.2695 27.2397H12.498C11.4785 27.2385 10.6529 26.4132 10.6504 25.394V20.2318C10.6504 19.9191 10.4285 19.6573 10.1328 19.5961L10.002 19.5824H9.72754C8.70789 19.5824 7.88005 18.7564 7.87891 17.7367V15.519C7.87914 15.2641 8.08593 15.058 8.34082 15.058C8.59556 15.0582 8.80152 15.2642 8.80176 15.519V17.7367L8.80664 17.8315C8.85492 18.2967 9.24818 18.6603 9.72559 18.6606H10.0029L10.1631 18.6684C10.954 18.7498 11.5712 19.4189 11.5723 20.2318V25.393C11.5723 25.9035 11.9872 26.3178 12.498 26.3178H15.2686C15.7785 26.3169 16.1925 25.9038 16.1934 25.393V20.2318C16.1934 19.3643 16.8968 18.6629 17.7627 18.6606H18.2275C18.737 18.6604 19.1504 18.2465 19.1514 17.7367V10.5063L19.1465 10.4115C19.1016 9.97719 18.756 9.63206 18.3213 9.58731L18.2266 9.58243H9.72754C9.21677 9.58243 8.80266 9.9964 8.80176 10.5063V13.0609C8.80176 13.3159 8.59582 13.5228 8.34082 13.5229C8.08579 13.5229 7.87988 13.316 7.87988 13.0609V10.5053L7.88965 10.3168C7.98514 9.38585 8.7716 8.65958 9.72754 8.65958H18.2275Z" fill="white" stroke="white" stroke-width="0.292086"/>
<path d="M14.1133 0.582672L14.3086 0.593414C15.2828 0.673184 16.1994 1.09653 16.8936 1.79068L17.0283 1.93326C17.6849 2.65633 18.0659 3.59107 18.0986 4.57193L18.1006 4.78091C18.0828 5.75214 17.7226 6.68738 17.083 7.41959L16.9414 7.57388C16.168 8.37223 15.1063 8.82513 13.9951 8.82974V8.83658L13.8438 8.83072C12.8626 8.797 11.9273 8.4163 11.2041 7.75845L11.0625 7.62369C10.3693 6.92944 9.94679 6.01289 9.86719 5.03873L9.85645 4.84341C9.81834 3.70225 10.2536 2.59667 11.0605 1.7897L11.2158 1.64322C12.0062 0.929653 13.0435 0.547967 14.1133 0.582672ZM14.083 1.50455C13.2536 1.47736 12.448 1.77413 11.835 2.32681L11.7148 2.44107C11.1273 3.02772 10.7927 3.81829 10.7764 4.6442L10.7773 4.81021L10.7861 4.96744C10.9148 6.52671 12.1565 7.76839 13.7168 7.89713L13.874 7.90591L13.9375 7.90787C15.6771 7.93116 17.123 6.55872 17.1807 4.81216L17.1816 4.64713C17.1518 3.00721 15.8824 1.65113 14.248 1.51431L14.083 1.50455Z" fill="white" stroke="white" stroke-width="0.292086"/>
<path d="M20.2539 12.3076L20.2559 12.3086L20.6299 12.4151C22.3609 12.9297 23.8469 13.6386 24.9609 14.4873L25.1943 14.6709L25.4287 14.8711C26.5661 15.8826 27.1816 17.0514 27.1816 18.2705C27.1816 19.4898 26.566 20.6568 25.4277 21.668L25.1934 21.8672C24.0046 22.843 22.3348 23.6469 20.3623 24.1983V24.2051L20.25 24.2315C20.217 24.2394 20.1787 24.2449 20.1377 24.2451L20.1387 24.2461L20.1357 24.2451L20.1348 24.2461V24.2451C19.9021 24.2493 19.7012 24.0811 19.6689 23.8487C19.6368 23.6162 19.7842 23.3973 20.0107 23.3389L20.7227 23.128C22.3418 22.6116 23.6607 21.9321 24.6045 21.1582C25.6838 20.2733 26.2587 19.2774 26.2588 18.2686C26.2588 17.2597 25.6837 16.264 24.6045 15.3789C23.5261 14.4945 21.9577 13.7331 20.0107 13.1973L20.0088 13.1963C19.7671 13.1258 19.6249 12.8754 19.6924 12.6309L19.7256 12.545C19.8077 12.3819 19.9806 12.2823 20.1631 12.293L20.2539 12.3076Z" fill="white" stroke="white" stroke-width="0.292086"/>
<path d="M7.7959 12.2312C8.00451 12.2276 8.19604 12.3664 8.25 12.5769C8.31119 12.8161 8.17376 13.0626 7.93652 13.1335L7.93164 13.1345C6.08382 13.6158 4.52113 14.3151 3.3877 15.158L3.16602 15.3289C2.02687 16.2421 1.44828 17.2589 1.44824 18.2703C1.44824 19.2807 2.02688 20.2974 3.16602 21.2087L3.3877 21.3796C4.4456 22.1655 5.87798 22.8268 7.56738 23.3044L7.93359 23.4041L7.93652 23.405L8.01562 23.4363C8.18922 23.5229 8.29304 23.7119 8.26758 23.9089V23.9099C8.23699 24.136 8.04629 24.3072 7.81641 24.3103H7.81445C7.77646 24.3103 7.73789 24.3055 7.69824 24.2947V24.2957C5.50624 23.7227 3.71896 22.8657 2.47656 21.8308C1.23424 20.7959 0.525391 19.5721 0.525391 18.2703C0.52549 16.9686 1.23416 15.7443 2.47656 14.7087C3.71916 13.673 5.50708 12.816 7.7002 12.2429L7.70605 12.241L7.7959 12.2312Z" fill="white" stroke="white" stroke-width="0.292086"/>
<path d="M21.3086 19.5571C21.4147 19.3627 21.6421 19.2732 21.8477 19.3354L21.9336 19.3716L21.9346 19.3726L22.0107 19.4243C22.151 19.5423 22.2094 19.7344 22.1562 19.9106L22.1201 19.9976L20.0645 23.8071L23.876 25.8618L23.9404 25.9048C24.0827 26.0156 24.1493 26.2021 24.1035 26.3813C24.0522 26.5854 23.8679 26.729 23.6572 26.729H23.5967L23.5859 26.7183C23.5342 26.7104 23.4836 26.6971 23.4365 26.6714V26.6724L19.2217 24.3989H19.2207C19.1403 24.3552 19.0755 24.2889 19.0332 24.2095L18.999 24.1255H18.998C18.9631 24.0085 18.9747 23.8807 19.0361 23.772H19.0371L21.291 19.5913V19.5903L21.3086 19.5571Z" fill="white" stroke="white" stroke-width="0.292086"/>
</svg>
